<?xml version="1.0" encoding="UTF-8"?>
<svg xmlns="http://www.w3.org/2000/svg" viewBox="0 0 800 600" width="800" height="600">
<defs><style>.node { fill: #e1f5fe; stroke: #01579b; } .edge { stroke: #37474f; fill: none; } .label { font: 12px sans-serif; }</style></defs>
  <line class="edge" x1="110" y1="68" x2="300" y2="40"/>
  <line class="edge" x1="110" y1="68" x2="490" y2="40"/>
  <line class="edge" x1="110" y1="68" x2="680" y2="40"/>
  <line class="edge" x1="110" y1="68" x2="870" y2="40"/>
  <line class="edge" x1="110" y1="68" x2="110" y2="108"/>
  <line class="edge" x1="110" y1="68" x2="300" y2="108"/>
  <line class="edge" x1="110" y1="68" x2="490" y2="108"/>
  <line class="edge" x1="110" y1="68" x2="680" y2="108"/>
  <line class="edge" x1="300" y1="68" x2="110" y2="108"/>
  <line class="edge" x1="300" y1="68" x2="300" y2="108"/>
  <line class="edge" x1="300" y1="68" x2="490" y2="108"/>
  <line class="edge" x1="490" y1="68" x2="680" y2="108"/>
  <line class="edge" x1="110" y1="136" x2="490" y2="108"/>
  <line class="edge" x1="490" y1="136" x2="490" y2="40"/>
  <line class="edge" x1="490" y1="136" x2="680" y2="40"/>
  <line class="edge" x1="490" y1="136" x2="680" y2="108"/>
  <rect class="node" x="40" y="40" width="140" height="28" rx="4"/>
  <text class="label" x="45" y="58">Azure.Core</text>
  <rect class="node" x="230" y="40" width="140" height="28" rx="4"/>
  <text class="label" x="235" y="58">System.ClientModel</text>
  <rect class="node" x="420" y="40" width="140" height="28" rx="4"/>
  <text class="label" x="425" y="58">Microsoft.Bcl.AsyncI…</text>
  <rect class="node" x="610" y="40" width="140" height="28" rx="4"/>
  <text class="label" x="615" y="58">System.Text.Encoding…</text>
  <rect class="node" x="800" y="40" width="140" height="28" rx="4"/>
  <text class="label" x="805" y="58">System.Numerics.Vect…</text>
  <rect class="node" x="40" y="108" width="140" height="28" rx="4"/>
  <text class="label" x="45" y="126">System.Memory.Data</text>
  <rect class="node" x="230" y="108" width="140" height="28" rx="4"/>
  <text class="label" x="235" y="126">System.Diagnostics.D…</text>
  <rect class="node" x="420" y="108" width="140" height="28" rx="4"/>
  <text class="label" x="425" y="126">System.Text.Json</text>
  <rect class="node" x="610" y="108" width="140" height="28" rx="4"/>
  <text class="label" x="615" y="126">System.Threading.Tas…</text>
</svg>